<svg width="7962" height="1461" viewBox="0 0 7962 1461" fill="none" xmlns="http://www.w3.org/2000/svg">
<path d="M1461 1237.62C1461 1360.79 1360.79 1461 1237.62 1461C1114.44 1461 1014.16 1360.79 1014.16 1237.62C1014.16 1081.17 886.909 953.918 730.533 953.918C574.158 953.918 446.835 1081.17 446.835 1237.62C446.835 1360.79 346.624 1461 223.451 1461C100.278 1461 0 1360.79 0 1237.62C0 1114.44 100.212 1014.16 223.451 1014.16C379.827 1014.16 507.082 886.909 507.082 730.533C507.082 574.158 379.827 446.835 223.451 446.835C100.212 446.835 0 346.624 0 223.451C0 100.278 100.212 0 223.451 0C346.69 0 446.835 100.212 446.835 223.451C446.835 379.827 574.091 507.082 730.533 507.082C853.706 507.082 953.918 607.294 953.918 730.533C953.918 886.909 1081.17 1014.16 1237.62 1014.16C1360.79 1014.16 1461 1114.38 1461 1237.62Z" fill="#F6FAFD"/>
<path d="M953.918 223.451C953.918 346.624 853.706 446.835 730.533 446.835C607.361 446.835 507.082 346.624 507.082 223.451C507.082 100.278 607.294 0 730.533 0C853.773 0 953.918 100.212 953.918 223.451Z" fill="#F6FAFD"/>
<path d="M1461.07 223.384C1461.07 346.557 1360.79 446.835 1237.62 446.835H1232.39C1111.56 444.023 1014.16 344.883 1014.16 223.451C1014.16 102.019 1114.38 0 1237.62 0C1360.86 0 1461.07 100.212 1461.07 223.384Z" fill="#F6FAFD"/>
<path d="M446.835 730.533C446.835 853.706 346.624 953.918 223.451 953.918C100.278 953.918 0 853.706 0 730.533C0 607.361 100.212 507.082 223.451 507.082C346.69 507.082 446.835 607.294 446.835 730.533Z" fill="#F6FAFD"/>
<path d="M1461 730.533C1461 853.706 1360.79 953.918 1237.62 953.918C1114.44 953.918 1014.16 853.706 1014.16 730.533C1014.16 607.361 1112.64 508.823 1234.4 507.149C1234.74 507.149 1235.07 507.082 1235.41 507.149H1243.37C1363.87 510.229 1461 609.235 1461 730.533Z" fill="#F6FAFD"/>
<path d="M953.918 1237.62C953.918 1360.79 853.706 1461 730.533 1461C607.361 1461 507.082 1360.79 507.082 1237.62C507.082 1114.44 607.294 1014.16 730.533 1014.16C853.773 1014.16 953.918 1114.38 953.918 1237.62Z" fill="#F6FAFD"/>
<path d="M7911.05 476.32C7877.69 413.033 7829.92 362.375 7767.87 324.21C7705.82 284.673 7631.27 265.041 7544.1 265.041C7456.92 265.041 7380.04 284.673 7313.19 324.073C7247.56 362.238 7196.22 415.916 7159.29 485.244C7122.36 554.434 7103.83 636.255 7103.83 730.431C7103.83 824.608 7122.36 905.33 7159.29 975.619C7197.46 1044.81 7249.35 1099.17 7314.97 1138.57C7380.59 1176.74 7455.82 1195.82 7540.53 1195.82C7610.95 1195.82 7672.46 1183.33 7724.9 1158.21C7778.58 1133.08 7823.33 1099.17 7859.16 1056.2C7894.99 1013.23 7920.66 964.362 7936.18 909.448H7787.64C7768.55 959.557 7738.08 998.957 7696.34 1027.65C7654.61 1056.34 7602.72 1070.62 7540.66 1070.62C7491.65 1070.62 7444.57 1058.68 7399.26 1034.79C7355.06 1009.67 7319.36 972.736 7291.91 923.863C7271.59 887.758 7258.96 844.788 7253.6 794.954C7251.82 778.755 7264.72 764.477 7281.06 764.477H7877.56C7923.82 764.477 7961.44 726.999 7961.44 680.597V680.323C7961.44 606.327 7944.69 538.235 7911.33 476.183L7911.05 476.32ZM7283.4 648.199C7266.65 648.199 7253.47 633.097 7256.21 616.486C7262.39 578.871 7273.51 545.785 7289.98 517.505C7317.44 472.202 7353.27 438.155 7397.34 415.504C7441.55 392.852 7489.18 381.457 7540.53 381.457C7616.86 381.457 7680.14 404.796 7730.25 451.335C7775.28 492.108 7801.91 547.57 7810.15 617.859C7812.07 634.058 7799.17 648.336 7782.83 648.336H7283.4V648.199Z" fill="#F6FAFD"/>
<path d="M6610.71 1195.96C6517.63 1195.96 6437.59 1176.88 6370.87 1138.71C6305.25 1099.31 6254.46 1045.08 6218.76 975.756C6182.93 905.33 6165.09 823.647 6165.09 730.569C6165.09 637.491 6184.17 556.356 6222.33 487.165C6261.73 416.739 6314.86 362.512 6381.72 324.21C6449.81 284.81 6526.14 265.179 6610.85 265.179C6717.1 265.179 6805.92 292.635 6877.59 347.548C6949.25 402.462 6994.55 475.908 7013.63 567.751H6859.74C6847.8 506.934 6818.55 460.944 6772.02 429.918C6725.48 397.657 6671.11 381.595 6609.06 381.595C6558.95 381.595 6511.73 394.774 6467.66 420.995C6423.45 446.118 6387.76 484.283 6360.3 535.626C6332.85 586.97 6319.12 652.043 6319.12 730.706C6319.12 786.855 6326.26 836.277 6340.53 879.246C6356.05 920.98 6376.91 956.262 6403.27 984.817C6429.49 1013.51 6459.97 1034.93 6494.57 1049.2C6530.4 1063.48 6568.56 1070.62 6609.2 1070.62C6649.83 1070.62 6689.1 1064.03 6723.83 1050.99C6758.42 1036.71 6787.67 1016.39 6811.55 990.171C6835.44 962.714 6851.5 930.453 6859.88 893.524H7013.77C6994.69 983.032 6949.39 1055.79 6877.72 1111.94C6806.06 1168.09 6717.24 1196.1 6610.98 1196.1L6610.71 1195.96Z" fill="#F6FAFD"/>
<path d="M5261.76 1174.41V286.457H5394.24L5400.97 352.216C5403.85 381.046 5438.72 393.676 5459.45 373.495C5484.44 349.333 5514.09 323.112 5537.43 309.658C5587.54 279.868 5647.8 264.904 5718.23 264.904C5788.66 264.904 5845.9 279.181 5897.25 307.874C5948.59 335.33 5987.99 378.3 6015.45 436.783C6044.14 494.03 6058.42 566.927 6058.42 655.2V1174.41H5908.09V671.399C5908.09 579.557 5888.46 510.229 5849.06 463.69C5809.66 417.151 5752.96 393.813 5678.97 393.813C5627.62 393.813 5581.63 406.306 5541.13 431.428C5501.73 456.551 5470.16 492.931 5446.27 540.569C5423.62 587.108 5412.23 645.041 5412.23 714.232V1174.27H5261.9L5261.76 1174.41Z" fill="#F6FAFD"/>
<path d="M5103.48 476.32C5070.12 413.033 5022.34 362.375 4960.29 324.21C4898.24 284.673 4823.56 265.041 4736.52 265.041C4649.48 265.041 4572.46 284.673 4505.61 324.073C4439.99 362.238 4388.64 415.916 4351.71 485.244C4314.65 554.434 4296.25 636.255 4296.25 730.431C4296.25 824.608 4314.78 905.33 4351.71 975.619C4389.88 1044.81 4441.77 1099.17 4507.53 1138.57C4573.15 1176.74 4648.38 1195.82 4733.09 1195.82C4803.51 1195.82 4865.01 1183.33 4917.46 1158.21C4971.13 1133.08 5015.89 1099.17 5051.72 1056.2C5087.55 1013.23 5113.22 964.362 5128.74 909.448H4980.2C4961.11 959.557 4930.64 998.957 4888.9 1027.65C4847.17 1056.34 4795.27 1070.62 4733.22 1070.62C4684.35 1070.62 4637.12 1058.68 4591.82 1034.79C4547.62 1009.67 4511.92 972.736 4484.47 923.863C4469.64 897.368 4458.79 867.165 4451.93 833.256C4445.06 799.347 4471.97 764.477 4508.22 764.477H5070.67C5116.65 764.477 5154 727.136 5154 681.147C5154 680.872 5154 680.597 5154 680.323C5154 606.327 5137.25 538.235 5103.89 476.183L5103.48 476.32ZM4475.82 648.199C4459.07 648.199 4445.89 633.097 4448.63 616.486C4454.81 578.871 4465.93 545.785 4482.27 517.505C4509.73 472.202 4545.56 438.155 4589.62 415.504C4633.83 392.852 4681.47 381.457 4732.81 381.457C4809.14 381.457 4872.43 404.796 4922.54 451.335C4966.05 490.735 4992.28 543.863 5001.61 610.72C5004.36 630.489 4989.39 648.336 4969.35 648.336H4475.68L4475.82 648.199Z" fill="#F6FAFD"/>
<path d="M3793.24 1174.41V286.457H3925.72L3932.31 374.731C3934.78 407.541 3977.34 418.798 3995.6 391.342C4010.43 369.239 4024.98 348.784 4035 338.351C4063.69 307.325 4096.5 287.693 4133.43 279.319C4171.6 269.846 4218.69 265.041 4274.83 265.041V422.642H4235.43C4187.66 422.642 4145.38 429.232 4108.31 442.274C4071.38 454.218 4040.9 472.064 4017.02 495.952C3993.13 519.839 3974.6 550.316 3961.55 587.245C3949.61 623.076 3943.71 665.359 3943.71 714.369V1174.41H3793.24Z" fill="#F6FAFD"/>
<path d="M3634.96 476.32C3601.6 413.033 3553.82 362.375 3491.77 324.21C3429.72 284.673 3355.04 265.041 3268 265.041C3180.96 265.041 3103.95 284.673 3037.09 324.073C2971.47 362.238 2920.12 415.916 2883.19 485.244C2846.27 554.434 2827.73 636.255 2827.73 730.431C2827.73 824.608 2846.27 905.33 2883.19 975.619C2921.36 1044.81 2973.25 1099.17 3038.87 1138.57C3104.49 1176.74 3179.73 1195.82 3264.43 1195.82C3334.86 1195.82 3396.36 1183.33 3448.8 1158.21C3502.48 1133.08 3547.23 1099.17 3583.06 1056.2C3618.9 1013.23 3644.57 964.362 3660.08 909.448H3511.54C3492.46 959.557 3461.98 998.957 3420.25 1027.65C3378.51 1056.34 3326.62 1070.62 3264.57 1070.62C3215.69 1070.62 3168.47 1058.68 3123.17 1034.79C3078.96 1009.67 3043.27 972.736 3015.81 923.863C2995.49 887.758 2982.86 844.788 2977.51 794.954C2975.72 778.755 2988.63 764.477 3004.96 764.477H3601.46C3647.72 764.477 3685.34 726.999 3685.34 680.735C3685.34 680.735 3685.34 680.46 3685.34 680.323C3685.34 606.327 3668.59 538.235 3635.23 476.183L3634.96 476.32ZM3007.3 648.199C2990.55 648.199 2977.37 633.097 2980.12 616.486C2986.29 578.871 2997.41 545.785 3013.75 517.505C3041.21 472.202 3077.04 438.155 3121.11 415.504C3165.31 392.852 3212.95 381.457 3264.29 381.457C3340.62 381.457 3403.91 404.796 3454.02 451.335C3499.05 492.108 3525.68 547.57 3533.92 617.859C3535.84 634.058 3522.93 648.336 3506.6 648.336H3007.16L3007.3 648.199Z" fill="#F6FAFD"/>
<path d="M1950.9 1174.41L2237.14 761.732C2250.18 742.924 2250.18 717.939 2237.14 699.131L1950.9 286.457H2113.86L2343.26 626.508C2354.24 642.707 2378.13 642.57 2388.97 626.233L2613.3 286.457H2774.47L2488.23 699.131C2475.19 717.939 2475.19 742.924 2488.23 761.732L2774.47 1174.41H2613.3L2382.25 832.707C2371.27 816.508 2347.24 816.645 2336.53 833.119L2113.86 1174.41H1950.9Z" fill="#F6FAFD"/>
</svg>
