<svg width="1462" height="1461" viewBox="0 0 1462 1461" fill="none" xmlns="http://www.w3.org/2000/svg">
<path d="M1461.07 1237.21C1461.07 1360.34 1360.89 1460.52 1237.76 1460.52C1114.62 1460.52 1014.38 1360.34 1014.38 1237.21C1014.38 1080.82 887.163 953.606 730.839 953.606C574.514 953.606 447.233 1080.82 447.233 1237.21C447.233 1360.34 347.054 1460.52 223.922 1460.52C100.79 1460.52 0.543945 1360.34 0.543945 1237.21C0.543945 1114.08 100.723 1013.83 223.922 1013.83C380.246 1013.83 507.461 886.619 507.461 730.295C507.461 573.97 380.246 446.689 223.922 446.689C100.723 446.689 0.543945 346.51 0.543945 223.378C0.543945 100.246 100.723 0 223.922 0C347.121 0 447.233 100.179 447.233 223.378C447.233 379.702 574.447 506.917 730.839 506.917C853.971 506.917 954.15 607.096 954.15 730.295C954.15 886.619 1081.36 1013.83 1237.76 1013.83C1360.89 1013.83 1461.07 1114.01 1461.07 1237.21Z" fill="white"/>
<path d="M954.15 223.378C954.15 346.51 853.971 446.689 730.839 446.689C607.706 446.689 507.461 346.51 507.461 223.378C507.461 100.246 607.64 0 730.839 0C854.038 0 954.15 100.179 954.15 223.378Z" fill="white"/>
<path d="M1461.13 223.311C1461.13 346.443 1360.89 446.689 1237.76 446.689H1232.54C1111.75 443.878 1014.38 344.77 1014.38 223.378C1014.38 101.986 1114.56 0 1237.76 0C1360.95 0 1461.13 100.179 1461.13 223.311Z" fill="white"/>
<path d="M447.233 730.295C447.233 853.427 347.054 953.606 223.922 953.606C100.79 953.606 0.543945 853.427 0.543945 730.295C0.543945 607.163 100.723 506.917 223.922 506.917C347.121 506.917 447.233 607.096 447.233 730.295Z" fill="white"/>
<path d="M1461.07 730.295C1461.07 853.427 1360.89 953.606 1237.76 953.606C1114.62 953.606 1014.38 853.427 1014.38 730.295C1014.38 607.162 1112.82 508.657 1234.54 506.984C1234.88 506.984 1235.21 506.917 1235.55 506.984H1243.51C1363.97 510.062 1461.07 609.036 1461.07 730.295Z" fill="white"/>
<path d="M954.15 1237.21C954.15 1360.34 853.971 1460.52 730.839 1460.52C607.706 1460.52 507.461 1360.34 507.461 1237.21C507.461 1114.08 607.64 1013.83 730.839 1013.83C854.038 1013.83 954.15 1114.01 954.15 1237.21Z" fill="white"/>
</svg>
